# xmcd
#
# Track frame offsets:
#	187
#	18080
#	40542
#	62637
#	79967
#	98565
#	115457
#	129830
#	147472
#	166267
#
# Disc length: 2472 seconds
#
# Revision: 1
# Processed by: cddbd v1.4PL0 Copyright (c) Steve Scherf et al.
# Submitted via: EasyCDDAExtractor 5.0.7
#
DISCID=7709a60a
DTITLE=Various Artist - Dance Beat 1990
DYEAR=1900
DGENRE=
TTITLE0=Trizzie and M Chanh - No more lies
TTITLE1=Linda T Dai - I want you
TTITLE2=Cao Lam - Careless Whisper
TTITLE3=Tuyet Nhung - Mercedes boy
TTITLE4=Michael Chanh - Time after time
TTITLE5=Linda Trang Dai - Knocked out
TTITLE6=Trizzie Phuong Trinh - Tell it to my heart
TTITLE7=Cao Lam - Wake me up
TTITLE8=Thuy Vi - You are my everything
TTITLE9=Vy Lan - Real love
EXTD=
EXTT0=
EXTT1=
EXTT2=
EXTT3=
EXTT4=
EXTT5=
EXTT6=
EXTT7=
EXTT8=
EXTT9=
PLAYORDER=
